<svg width="24" height="25" viewBox="0 0 24 25" fill="none" xmlns="http://www.w3.org/2000/svg">
<path fill-rule="evenodd" clip-rule="evenodd" d="M12 5.03684C13.09 3.75684 14.76 2.94684 16.5 2.94684C19.58 2.94684 22 5.36684 22 8.44684C22 12.2237 18.6056 15.3018 13.4627 19.9653L13.45 19.9768L12 21.2968L10.55 19.9868L10.5105 19.951C5.38263 15.2911 2 12.2172 2 8.44684C2 5.36684 4.42 2.94684 7.5 2.94684C9.24 2.94684 10.91 3.75684 12 5.03684ZM12 18.5968L12.1 18.4968C16.86 14.1868 20 11.3368 20 8.44684C20 6.44684 18.5 4.94684 16.5 4.94684C14.96 4.94684 13.46 5.93684 12.94 7.30684H11.07C10.54 5.93684 9.04 4.94684 7.5 4.94684C5.5 4.94684 4 6.44684 4 8.44684C4 11.3368 7.14 14.1868 11.9 18.4968L12 18.5968Z" fill="#F231A5"/>
</svg>
